<svg width="232" height="42" viewBox="0 0 232 42" fill="none" xmlns="http://www.w3.org/2000/svg">
<path d="M48.1319 0.294735H42.9173V14.0106C42.9173 17.3605 40.9579 19.3515 37.7344 19.3515C34.4476 19.3515 32.425 17.2973 32.425 14.0106V0.294735H27.1473V14.0106C27.1473 20.268 31.1925 24.1553 37.7028 24.1553C44.1182 24.1553 48.1319 20.268 48.1319 14.0106V0.294735Z" fill="white"/>
<path d="M58.3397 5.09844H51.2606V0.326341H70.7282V5.09844H63.6491V23.9972H58.3397V5.09844Z" fill="white"/>
<path d="M85.171 19.1619C87.1936 19.1619 89.4058 18.2138 91.0176 16.6337L91.3968 16.3176L94.5572 19.8572L94.2411 20.1732C91.7445 22.7015 88.2681 24.2185 84.9497 24.2185C78.0286 24.2185 72.6244 18.9091 72.6244 12.146C72.6244 5.44608 78.0918 0.199924 85.1078 0.199924C88.4893 0.199924 91.8709 1.62207 94.2095 3.99232L94.4939 4.27676L91.3652 8.19557L91.0176 7.78472C89.4374 6.01494 87.2568 4.97203 85.171 4.97203C81.1573 4.97203 77.997 8.06915 77.997 12.0512C77.997 16.0332 81.1257 19.1619 85.171 19.1619Z" fill="white"/>
<path d="M115.004 10.0286V0.294735H120.282V23.9656H115.004V14.7375H104.575V23.9656H99.2976V0.294735H104.575V10.0286H115.004Z" fill="white"/>
<path d="M127.646 23.9024V0.357941H130.332V21.4058H140.666V23.9024H127.646Z" fill="white"/>
<path d="M147.05 23.9024V0.326341H163.01V2.823H149.737V10.7238H161.619V13.1889H149.737V21.4058H163.452V23.9024H147.05Z" fill="white"/>
<path fill-rule="evenodd" clip-rule="evenodd" d="M190.126 23.9024H187.186L184.532 17.8978H171.732L169.109 23.9024H166.265L176.821 0.357941H179.602L190.126 23.9024ZM178.116 3.29705L172.839 15.4011H183.457L178.116 3.29705Z" fill="white"/>
<path d="M208.772 2.31735L207.634 4.7192C205.516 3.36026 203.02 2.7914 201.187 2.7598C198.153 2.7598 196.162 3.96072 196.162 5.98333C196.162 8.79523 198.947 9.6461 201.96 10.5664C205.516 11.6528 209.389 12.8359 209.372 17.4553C209.372 21.3426 205.927 23.8708 200.871 23.8708C197.458 23.8708 194.076 22.3855 191.864 20.268L193.065 17.961C195.245 20.0468 198.248 21.2477 200.902 21.2477C204.284 21.2477 206.401 19.8572 206.401 17.5818C206.416 14.6667 203.579 13.8157 200.531 12.9014C197.002 11.8431 193.191 10.6999 193.191 6.17296C193.191 2.47537 196.446 0.136719 201.313 0.136719C204.031 0.136719 206.812 1.02161 208.772 2.31735Z" fill="white"/>
<path d="M215.598 23.9024V0.326341H231.558V2.823H218.284V10.7238H230.167V13.1889H218.284V21.4058H232V23.9024H215.598Z" fill="white"/>
<path fill-rule="evenodd" clip-rule="evenodd" d="M0 0.294735H10.2079C17.7295 0.294735 22.8176 5.09844 22.8492 12.1144C22.8492 19.1935 17.6663 23.9972 9.98665 23.9972H0V0.294735ZM6.19425 19.0039H10.3659C13.9687 19.0039 16.4969 16.2544 16.4969 12.2092C16.4969 8.13236 13.8423 5.35127 10.0815 5.35127H6.19425V19.0039Z" fill="white"/>
<path d="M86.9723 36.5753C86.3719 36.5753 85.9926 36.7965 85.9926 37.2074C85.9926 37.7891 86.6179 37.9762 87.3203 38.1865C88.2206 38.456 89.2478 38.7635 89.2478 39.9884C89.2478 41.063 88.2997 41.7266 86.9723 41.7266C86.0242 41.7266 85.1393 41.3474 84.5073 40.7785L84.9497 39.8936C85.5818 40.4625 86.3403 40.7785 87.004 40.7785C87.6992 40.7785 88.1417 40.5257 88.1417 40.0517C88.1417 39.4497 87.503 39.2632 86.7914 39.0554C85.8966 38.7942 84.8865 38.4993 84.8865 37.3022C84.8865 36.2593 85.7714 35.6272 87.0988 35.6272C87.8888 35.6272 88.6473 35.88 89.2162 36.2593L88.8053 37.1441C88.0785 36.7333 87.4148 36.5753 86.9723 36.5753Z" fill="white"/>
<path d="M27.7793 37.2706C27.7793 36.9229 28.0953 36.7649 28.5378 36.7649C29.0434 36.7649 29.8019 37.0177 30.4024 37.4602L30.9396 36.3225C30.3076 35.9116 29.4859 35.6588 28.6326 35.6588C27.2421 35.6588 26.294 36.3225 26.294 37.4286C26.294 38.6725 27.374 38.9741 28.2838 39.228C28.9457 39.4129 29.5175 39.5725 29.5175 40.0517C29.5175 40.3993 29.2015 40.6205 28.6326 40.6205C27.9689 40.6205 27.1156 40.2413 26.4836 39.704L25.9463 40.8101C26.61 41.379 27.6213 41.7582 28.601 41.7582C29.9599 41.7582 30.9712 41.0946 30.9712 39.9252C30.9897 38.6728 29.9025 38.3542 28.9921 38.0875C28.3404 37.8965 27.7793 37.7321 27.7793 37.2706Z" fill="white"/>
<path d="M37.3235 39.546L34.3844 35.6588H33.1835V41.695H34.4792V37.8394L37.3867 41.695H38.6193V35.6588H37.3235V39.546Z" fill="white"/>
<path d="M45.73 35.6588V36.7965H42.5065V38.0922H45.414V39.23H42.5065V40.5573H45.8248V41.695H41.1475V35.6588H45.73Z" fill="white"/>
<path d="M49.4592 40.4941V35.6588H48.1003V41.695H52.0507V40.4941H49.4592Z" fill="white"/>
<path d="M58.3713 39.388C58.3713 39.7672 58.0869 40.0517 57.7393 40.0517C57.3916 40.0517 57.1072 39.7672 57.1072 39.388C57.1072 39.0087 57.3916 38.7243 57.7393 38.7243C58.1185 38.7243 58.3713 39.0087 58.3713 39.388Z" fill="white"/>
<path fill-rule="evenodd" clip-rule="evenodd" d="M65.9561 39.862C67.4731 39.862 68.358 39.072 68.358 37.713C68.358 36.4173 67.5047 35.6588 65.9561 35.6588H63.5543V41.695H64.5656V39.862H65.9561ZM65.9245 36.5753C66.841 36.5753 67.3783 36.9545 67.3783 37.7446C67.3783 38.5663 66.8726 38.9771 65.9245 38.9771H64.5656V36.5753H65.9245Z" fill="white"/>
<path d="M74.9631 35.6904V36.5753H71.6763V38.2187H74.6154V39.1352H71.6763V40.8101H75.0579V41.7266H70.6334V35.6904H74.9631Z" fill="white"/>
<path fill-rule="evenodd" clip-rule="evenodd" d="M80.2724 39.862L81.3785 41.695H82.5163L81.1573 39.6724C81.979 39.3564 82.4215 38.6927 82.4215 37.713C82.4215 36.4173 81.5366 35.6588 79.988 35.6588H77.5546V41.695H78.5659V39.862H80.2724ZM81.4734 37.7762C81.4734 38.5663 80.9361 38.9771 80.0196 38.9771V39.0088H78.5659V36.6069H80.0196C80.9361 36.6069 81.4734 36.9861 81.4734 37.7762Z" fill="white"/>
<path fill-rule="evenodd" clip-rule="evenodd" d="M94.3991 41.7582C96.2005 41.7582 97.5911 40.4309 97.5911 38.6927C97.5911 36.9545 96.1689 35.6272 94.3991 35.6588C92.5977 35.6588 91.2072 36.9545 91.2072 38.6927C91.2072 40.4309 92.5977 41.7582 94.3991 41.7582ZM94.3991 40.8417C93.1982 40.8417 92.2185 39.8936 92.2185 38.6927C92.2185 37.4918 93.1982 36.5437 94.3991 36.5753C95.5685 36.5753 96.5481 37.4918 96.5481 38.6927C96.5481 39.8936 95.5685 40.8417 94.3991 40.8417Z" fill="white"/>
<path fill-rule="evenodd" clip-rule="evenodd" d="M105.587 38.6927C105.587 40.4309 104.196 41.7582 102.395 41.7582C100.593 41.7582 99.2028 40.4309 99.2028 38.6927C99.2028 36.9545 100.593 35.6588 102.395 35.6588C104.196 35.6272 105.587 36.9545 105.587 38.6927ZM100.214 38.6927C100.214 39.8936 101.194 40.8417 102.395 40.8417C103.564 40.8417 104.544 39.8936 104.544 38.6927C104.544 37.4918 103.564 36.5753 102.395 36.5753C101.194 36.5437 100.214 37.4918 100.214 38.6927Z" fill="white"/>
<path d="M112.16 39.9884L108.937 35.6588H107.957V41.695H108.968V37.3654L112.16 41.695H113.171V35.6588H112.16V39.9884Z" fill="white"/>
<path d="M117.059 35.6588V40.7785H119.682V41.695H116.047V35.6588H117.059Z" fill="white"/>
<path d="M122.905 41.695V35.6588H121.894V41.695H122.905Z" fill="white"/>
<path d="M126.729 41.7266C126.002 41.7266 125.402 41.4106 124.96 40.8417L125.434 40.0517C125.844 40.4941 126.318 40.7153 126.729 40.7153C127.267 40.7153 127.583 40.3677 127.583 39.7672V36.5437H125.497V35.6272H128.594V39.7988C128.626 41.063 127.899 41.7266 126.729 41.7266Z" fill="white"/>
<path d="M133.366 39.0403L135.357 41.695V41.7266H136.59L134.093 38.2819L136.432 35.6904H135.231L132.355 38.8191V35.6904H131.343V41.7266H132.355V40.1781L133.366 39.0403Z" fill="white"/>
<path d="M141.709 39.388C141.709 39.0087 141.994 38.7243 142.341 38.7243C142.689 38.7243 142.973 39.0087 142.973 39.388C142.973 39.7672 142.689 40.0517 142.341 40.0517C141.994 40.0517 141.709 39.7672 141.709 39.388Z" fill="white"/>
<path d="M153.181 38.7243H152.296V40.4309C151.854 40.6837 151.348 40.8417 150.906 40.8417C149.673 40.8417 148.694 39.8936 148.694 38.6927C148.694 37.4918 149.673 36.5437 150.906 36.5437C151.538 36.5437 152.17 36.7965 152.644 37.239L153.213 36.4805C152.644 35.9432 151.759 35.6272 150.906 35.6272C149.073 35.6272 147.682 36.9229 147.682 38.6611C147.682 40.3993 149.073 41.7266 150.843 41.7266C151.664 41.7266 152.581 41.4106 153.181 40.9365V38.7243Z" fill="white"/>
<path d="M160.039 35.6904V36.5753H156.752V38.2187H159.692V39.1352H156.752V40.8101H160.134V41.7266H155.71V35.6904H160.039Z" fill="white"/>
<path fill-rule="evenodd" clip-rule="evenodd" d="M164.938 41.695C166.771 41.695 168.098 40.4309 168.098 38.6927C168.098 36.9229 166.771 35.6588 164.969 35.6588H162.504V41.695H164.938ZM164.938 36.5753C166.139 36.5753 167.055 37.4602 167.055 38.6927C167.055 39.9252 166.17 40.7785 164.969 40.7785H163.484V36.5753H164.938Z" fill="white"/>
<path fill-rule="evenodd" clip-rule="evenodd" d="M174.103 41.695L172.997 39.862H171.29V41.695H170.279V35.6588H172.712C174.261 35.6588 175.146 36.4173 175.146 37.713C175.146 38.6927 174.703 39.3564 173.881 39.6724L175.24 41.695H174.103ZM172.744 38.9771C173.66 38.9771 174.198 38.5663 174.198 37.7762C174.198 36.9861 173.66 36.6069 172.744 36.6069H171.322V39.0088H172.744V38.9771Z" fill="white"/>
<path d="M181.94 36.5753V35.6904H177.611V41.7266H182.035V40.8101H178.654V39.1352H181.593V38.2187H178.654V36.5753H181.94Z" fill="white"/>
<path d="M184.721 35.6588L186.586 40.5573L188.451 35.6588H189.525L187.092 41.695H186.017L183.615 35.6588H184.721Z" fill="white"/>
<path d="M195.751 36.5753V35.6904H191.421V41.7266H195.846V40.8101H192.464V39.1352H195.403V38.2187H192.464V36.5753H195.751Z" fill="white"/>
<path d="M199.227 35.6588L202.451 39.9884V35.6588H203.462V41.695H202.451L199.227 37.3654V41.695H198.216V35.6588H199.227Z" fill="white"/>
</svg>
